# Blender 3.5.1
# www.blender.org
# mtllib bent_plane_smooth.mtl
o Plane.001
v 1.000000 -0.000000 -0.000000
v 1.000000 -1.000000 0.000000
v -1.000000 -0.000000 0.000000
v -1.000000 -1.000000 0.000000
v 1.000000 0.707107 -0.707107
v -1.000000 0.707107 -0.707107
vn -0.0000 0.3827 0.9239
vn -0.0000 -0.0000 1.0000
vn -0.0000 0.7071 0.7071
vt 1.000000 0.500000
vt 1.000000 0.000000
vt 0.000000 0.500000
vt 0.000000 0.000000
vt 1.000000 1.000000
vt 0.000000 1.000000
s 1
# usemtl Material.001
f 3/3/1 2/2/2 1/1/1
f 6/6/3 1/1/1 5/5/3
f 3/3/1 4/4/2 2/2/2
f 6/6/3 3/3/1 1/1/1
