# Blender 3.5.1
# www.blender.org
mtllib xyz-cube.mtl
# pbrlib xyz-cube.pbr
# bones xyz-cube.bones
o Cube
v -0.500000 -0.500000 0.500000
v 0.220056 -0.450000 0.120478
v 0.078504 -0.068844 0.450000
v 0.220056 -0.450000 0.230418
v -0.230242 -0.450000 0.230418
v 0.279066 0.230418 0.450000
v -0.230242 -0.450000 0.127503
v -0.450000 -0.016157 0.100984
v 0.058483 -0.450000 -0.173867
v 0.102388 0.230418 0.450000
v -0.240780 -0.450000 -0.173867
v -0.450000 0.230418 0.262557
v -0.240780 -0.450000 -0.284510
v -0.001581 0.056551 0.450000
v 0.220056 0.550000 0.120478
v 0.247805 -0.450000 -0.284510
v -0.105550 0.230418 0.450000
v 0.247805 -0.450000 -0.177731
v -0.037759 -0.450000 0.120478
v 0.220056 0.550000 0.230418
v -0.450000 0.230418 0.087285
v -0.281173 0.230418 0.450000
v -0.450000 0.072006 -0.004039
v -0.080962 -0.068844 0.450000
v -0.080962 -0.284510 0.450000
v 0.078504 -0.068844 -0.550000
v -0.450000 0.230418 -0.092554
v 0.078504 -0.284510 0.450000
v -0.230242 0.550000 0.230418
v -0.450000 0.230418 -0.266070
v 0.279066 0.230418 -0.550000
v -0.450000 -0.018967 -0.105901
v 0.550000 -0.016157 0.100984
v -0.230242 0.550000 0.127503
v -0.450000 -0.284510 -0.281173
v -0.500000 0.500000 0.500000
v -0.450000 -0.284510 -0.102388
v 0.058483 0.550000 -0.173867
v -0.450000 -0.119073 -0.000878
v -0.450000 -0.284510 0.100984
v -0.240780 0.550000 -0.173867
v 0.102388 0.230418 -0.550000
v -0.450000 -0.284510 0.278714
v -0.240780 0.550000 -0.284510
v -0.001581 0.056551 -0.550000
v 0.247805 0.550000 -0.284510
v 0.550000 0.230418 0.262557
v -0.500000 -0.500000 -0.500000
v 0.247805 0.550000 -0.177731
v -0.037759 0.550000 0.120478
v -0.105550 0.230418 -0.550000
v -0.281173 0.230418 -0.550000
v 0.550000 0.230418 0.087285
v -0.500000 0.500000 -0.500000
v -0.080962 -0.068844 -0.550000
v -0.080962 -0.284510 -0.550000
v 0.550000 0.072006 -0.004039
v 0.078504 -0.284510 -0.550000
v 0.500000 -0.500000 0.500000
v 0.550000 0.230418 -0.092554
v 0.500000 0.500000 0.500000
v 0.550000 0.230418 -0.266070
v 0.500000 -0.500000 -0.500000
v 0.550000 -0.018967 -0.105901
v 0.500000 0.500000 -0.500000
v 0.550000 -0.284510 -0.281173
v 0.550000 -0.284510 -0.102388
v 0.550000 -0.119073 -0.000878
v 0.550000 -0.284510 0.100984
v 0.550000 -0.284510 0.278714
v 0.500000 0.230418 0.087285
v 0.500000 0.072006 -0.004039
v 0.500000 0.230418 -0.092554
v 0.500000 -0.018967 -0.105901
v 0.500000 0.230418 -0.266070
v 0.500000 -0.284510 0.278714
v 0.500000 0.230418 0.262557
v 0.500000 -0.119073 -0.000878
v 0.500000 -0.284510 0.100984
v 0.500000 -0.016157 0.100984
v 0.500000 -0.284510 -0.281173
v 0.500000 -0.284510 -0.102388
v -0.281173 0.230418 -0.500000
v -0.105550 0.230418 -0.500000
v -0.080962 -0.068844 -0.500000
v -0.001581 0.056551 -0.500000
v 0.102388 0.230418 -0.500000
v -0.080962 -0.284510 -0.500000
v 0.078504 -0.284510 -0.500000
v 0.279066 0.230418 -0.500000
v 0.078504 -0.068844 -0.500000
v -0.240780 0.500000 -0.173867
v -0.230242 0.500000 0.127503
v -0.240780 0.500000 -0.284510
v 0.058483 0.500000 -0.173867
v 0.247805 0.500000 -0.284510
v -0.230242 0.500000 0.230418
v -0.037759 0.500000 0.120478
v 0.247805 0.500000 -0.177731
v 0.220056 0.500000 0.230418
v 0.220056 0.500000 0.120478
v -0.500000 0.230418 0.262557
v -0.500000 -0.016157 0.100984
v -0.500000 0.072006 -0.004039
v -0.500000 0.230418 -0.092554
v -0.500000 0.230418 0.087285
v -0.500000 -0.284510 0.278714
v -0.500000 -0.284510 -0.102388
v -0.500000 -0.284510 0.100984
v -0.500000 -0.119073 -0.000878
v -0.500000 -0.018967 -0.105901
v -0.500000 -0.284510 -0.281173
v -0.500000 0.230418 -0.266070
v -0.001581 0.056551 0.500000
v -0.105550 0.230418 0.500000
v 0.279066 0.230418 0.500000
v 0.102388 0.230418 0.500000
v 0.078504 -0.068844 0.500000
v -0.281173 0.230418 0.500000
v 0.078504 -0.284510 0.500000
v -0.080962 -0.068844 0.500000
v -0.080962 -0.284510 0.500000
v -0.240780 -0.500000 -0.284510
v 0.058483 -0.500000 -0.173867
v 0.220056 -0.500000 0.120478
v 0.247805 -0.500000 -0.177731
v 0.247805 -0.500000 -0.284510
v -0.240780 -0.500000 -0.173867
v -0.230242 -0.500000 0.127503
v -0.230242 -0.500000 0.230418
v -0.037759 -0.500000 0.120478
v 0.220056 -0.500000 0.230418
vn -1.0000 -0.0000 -0.0000
vn -0.0000 -0.0000 -1.0000
vn 1.0000 -0.0000 -0.0000
vn -0.0000 -0.0000 1.0000
vn -0.0000 -1.0000 -0.0000
vn -0.0000 1.0000 -0.0000
vn 0.8540 0.0013 0.5202
vn 0.9624 0.1291 0.2389
vn 0.6017 0.0020 0.7987
vn 0.5528 0.3961 0.7331
vn 0.8387 0.4715 -0.2724
vn 0.6099 0.6861 -0.3964
vn 0.5542 0.8324 0.0056
vn 0.9590 0.2832 0.0019
vn 0.8405 0.4673 0.2742
vn 0.6090 0.6841 0.4014
vn 0.9617 0.1314 -0.2406
vn 0.5531 0.3994 -0.7311
vn 0.6025 0.0050 -0.7981
vn 0.8526 0.0033 -0.5225
vn 0.9627 -0.1282 -0.2383
vn 0.5527 -0.3949 -0.7339
vn 0.8351 -0.4800 0.2686
vn 0.6119 -0.6902 0.3863
vn 0.5566 -0.8308 0.0006
vn 0.9531 -0.3026 0.0002
vn 0.8349 -0.4805 -0.2684
vn 0.6121 -0.6904 -0.3857
vn 0.9628 -0.1279 0.2380
vn 0.5527 -0.3944 0.7342
vn 0.6001 -0.1825 -0.7788
vn 0.2370 0.1265 -0.9632
vn 0.7294 -0.2218 -0.6471
vn 0.7354 0.3924 -0.5525
vn -0.2703 0.4765 -0.8366
vn -0.3905 0.6885 -0.6111
vn -0.0000 0.8313 -0.5558
vn -0.0000 0.2959 -0.9552
vn 0.2703 0.4765 -0.8366
vn 0.3905 0.6885 -0.6111
vn -0.2372 0.1267 -0.9632
vn -0.7352 0.3927 -0.5525
vn -0.7294 -0.2215 -0.6472
vn -0.6003 -0.1823 -0.7787
vn -0.3015 -0.3015 -0.9045
vn -0.5774 -0.5774 -0.5774
vn 0.3015 -0.3015 -0.9045
vn 0.5774 -0.5774 -0.5774
vn 0.5773 0.5774 -0.5773
vn 0.3015 0.9045 0.3015
vn 0.3015 0.9045 -0.3015
vn 0.5774 0.5774 0.5774
vn -0.3015 0.9045 0.3015
vn -0.7191 0.6320 -0.2889
vn -0.5774 0.5774 0.5774
vn -0.7697 0.5475 0.3285
vn -0.5550 0.8014 -0.2230
vn -0.2021 0.9756 0.0862
vn -0.5773 0.5774 0.5773
vn -0.3015 0.9045 -0.3015
vn -0.5774 0.5774 -0.5774
vn 0.5774 0.5774 -0.5774
vn 0.5551 0.8013 0.2229
vn 0.7191 0.6321 0.2888
vn 0.7696 0.5475 -0.3286
vn 0.2021 0.9756 -0.0863
vn -0.8540 -0.0013 -0.5202
vn -0.9624 -0.1291 -0.2389
vn -0.5528 -0.3961 -0.7331
vn -0.8387 -0.4715 0.2724
vn -0.6099 -0.6861 0.3964
vn -0.5542 -0.8324 -0.0056
vn -0.9590 -0.2832 -0.0019
vn -0.8405 -0.4673 -0.2742
vn -0.6090 -0.6841 -0.4014
vn -0.9617 -0.1314 0.2406
vn -0.5531 -0.3994 0.7311
vn -0.6025 -0.0050 0.7981
vn -0.8526 -0.0033 0.5225
vn -0.9627 0.1282 0.2383
vn -0.5527 0.3949 0.7339
vn -0.8351 0.4800 -0.2686
vn -0.6119 0.6902 -0.3863
vn -0.5566 0.8308 -0.0006
vn -0.9531 0.3026 -0.0002
vn -0.8349 0.4805 0.2684
vn -0.6121 0.6904 0.3857
vn -0.9628 0.1279 -0.2380
vn -0.5527 0.3944 -0.7342
vn -0.6017 -0.0020 -0.7987
vn -0.6001 0.1825 0.7788
vn -0.2370 -0.1265 0.9632
vn -0.7354 -0.3924 0.5525
vn 0.3905 -0.6885 0.6111
vn 0.2703 -0.4765 0.8366
vn -0.0000 -0.8313 0.5558
vn -0.0000 -0.2959 0.9552
vn -0.2703 -0.4765 0.8366
vn -0.3905 -0.6885 0.6111
vn 0.2372 -0.1267 0.9632
vn 0.7352 -0.3927 0.5525
vn 0.7294 0.2215 0.6472
vn 0.6003 0.1823 0.7787
vn 0.3015 0.3015 0.9045
vn -0.3015 0.3015 0.9045
vn -0.7294 0.2218 0.6471
vn -0.5773 -0.5774 0.5774
vn -0.3015 -0.9045 -0.3015
vn 0.3015 -0.9045 -0.3015
vn 0.7191 -0.6320 0.2889
vn 0.5550 -0.8014 0.2230
vn 0.2021 -0.9756 -0.0862
vn 0.7697 -0.5475 -0.3285
vn 0.5773 -0.5774 -0.5773
vn 0.5774 -0.5774 0.5774
vn 0.3015 -0.9045 0.3015
vn -0.5774 -0.5774 0.5774
vn -0.3015 -0.9045 0.3015
vn -0.7191 -0.6321 -0.2888
vn -0.5551 -0.8013 -0.2229
vn -0.7696 -0.5475 0.3286
vn -0.2021 -0.9756 0.0863
vt 0.649165 0.436852
vt 0.436852 0.224540
vt 0.070145 0.303799
vt 0.937593 0.960984
vt 0.108680 0.135577
vt 0.906185 0.907784
vt 0.070145 0.280457
vt 0.937593 0.984325
vt 0.937593 0.399090
vt 0.165750 0.280457
vt 0.937593 0.494694
vt 0.066098 0.072039
vt 0.906185 0.984270
vt 0.906185 0.545086
vt 0.165750 0.302308
vt 0.937593 0.516544
vt 0.759405 0.546402
vt 0.874993 0.921745
vt 0.104450 0.366292
vt 0.937593 0.605154
vt 0.103609 0.072039
vt 0.906185 0.582597
vt 0.167988 0.366292
vt 0.937593 0.668691
vt 0.793709 0.598753
vt 0.874993 0.984334
vt 0.874993 0.413377
vt 0.167988 0.389783
vt 0.937593 0.692182
vt 0.125683 0.108954
vt 0.906185 0.625608
vt 0.501433 0.792347
vt 0.921884 0.422506
vt 0.064255 0.389783
vt 0.937593 0.795915
vt 0.147757 0.072039
vt 0.906185 0.668618
vt 0.064255 0.367112
vt 0.937593 0.818585
vt 0.124883 0.303799
vt 0.937593 0.906246
vt 0.501433 0.815688
vt 0.921884 0.399164
vt 0.921884 0.984399
vt 0.756496 0.598753
vt 0.874993 0.450589
vt 0.185044 0.072039
vt 0.906185 0.705905
vt 0.737107 0.565120
vt 0.874993 0.489411
vt 0.142537 0.135577
vt 0.906185 0.782350
vt 0.142537 0.181365
vt 0.906185 0.828139
vt 0.527625 0.322752
vt 0.890702 0.621636
vt 0.718314 0.598753
vt 0.874993 0.527938
vt 0.108680 0.181365
vt 0.906185 0.861995
vt 0.597037 0.815688
vt 0.921884 0.888795
vt 0.681475 0.598753
vt 0.874993 0.564778
vt 0.485043 0.386289
vt 0.890702 0.545150
vt 0.890702 0.984334
vt 0.715481 0.545805
vt 0.874993 0.627705
vt 0.096862 0.753226
vt 0.859346 0.475946
vt 0.597037 0.793838
vt 0.921884 0.866945
vt 0.678268 0.489427
vt 0.874993 0.695257
vt 0.649165 0.649165
vt 0.436852 0.012227
vt 0.436852 0.861477
vt 0.716226 0.489427
vt 0.874993 0.733215
vt 0.535737 0.729854
vt 0.921884 0.778335
vt 0.737778 0.524552
vt 0.874993 0.774425
vt 0.759405 0.489427
vt 0.874993 0.815673
vt 0.599273 0.729854
vt 0.921884 0.714798
vt 0.522554 0.386289
vt 0.890702 0.946823
vt 0.797139 0.489427
vt 0.874993 0.853408
vt 0.599273 0.706363
vt 0.921884 0.691307
vt 0.544628 0.349374
vt 0.890702 0.903812
vt 0.495541 0.706363
vt 0.921884 0.587574
vt 0.062558 0.805577
vt 0.859347 0.413357
vt 0.859346 0.984314
vt 0.436852 0.436852
vt 0.495541 0.729033
vt 0.921884 0.564904
vt 0.556170 0.792347
vt 0.921884 0.477243
vt 0.566702 0.386289
vt 0.890702 0.860801
vt 0.603989 0.386289
vt 0.890702 0.823514
vt 0.099771 0.805577
vt 0.859346 0.947101
vt 0.436852 0.649165
vt 0.561482 0.322752
vt 0.890702 0.747069
vt 0.561482 0.276963
vt 0.890702 0.701281
vt 0.119160 0.771944
vt 0.859346 0.908280
vt 0.527625 0.276963
vt 0.890702 0.667424
vt 0.012227 0.436852
vt 0.224540 0.224540
vt 0.137953 0.805577
vt 0.859346 0.869752
vt 0.012227 0.649164
vt 0.224540 0.012227
vt 0.224540 0.861477
vt 0.174792 0.805577
vt 0.859346 0.832913
vt 0.224540 0.436852
vt 0.140786 0.752629
vt 0.859346 0.769985
vt 0.224540 0.649165
vt 0.177999 0.696251
vt 0.859346 0.702433
vt 0.140041 0.696251
vt 0.859346 0.664475
vt 0.118489 0.731376
vt 0.859346 0.623266
vt 0.096862 0.696251
vt 0.859346 0.582017
vt 0.059128 0.696251
vt 0.859346 0.544283
vt 0.099852 0.591929
vt 0.869962 0.947101
vt 0.119241 0.558296
vt 0.869962 0.908280
vt 0.138034 0.591929
vt 0.869962 0.869752
vt 0.140868 0.538981
vt 0.869962 0.769985
vt 0.174873 0.591929
vt 0.869962 0.832913
vt 0.059209 0.482603
vt 0.869962 0.544283
vt 0.869962 0.984314
vt 0.062639 0.591929
vt 0.869962 0.413357
vt 0.118570 0.517728
vt 0.869962 0.623266
vt 0.096943 0.482603
vt 0.869962 0.582017
vt 0.096943 0.539578
vt 0.869962 0.475946
vt 0.178080 0.482603
vt 0.869962 0.702433
vt 0.140122 0.482603
vt 0.869962 0.664475
vt 0.390393 0.591929
vt 0.901318 0.823514
vt 0.353106 0.591929
vt 0.901318 0.860801
vt 0.347885 0.528392
vt 0.901318 0.747069
vt 0.331032 0.555015
vt 0.901318 0.903812
vt 0.308958 0.591929
vt 0.901318 0.946823
vt 0.347885 0.482603
vt 0.901318 0.701281
vt 0.314029 0.482603
vt 0.901318 0.667424
vt 0.901318 0.984334
vt 0.271447 0.591929
vt 0.901318 0.545150
vt 0.314029 0.528392
vt 0.901318 0.621636
vt 0.381817 0.718407
vt 0.932500 0.714798
vt 0.379579 0.782391
vt 0.932500 0.866945
vt 0.381817 0.694916
vt 0.932500 0.691307
vt 0.318279 0.718407
vt 0.932500 0.778335
vt 0.278084 0.694916
vt 0.932500 0.587574
vt 0.379579 0.804242
vt 0.932500 0.888795
vt 0.338713 0.780900
vt 0.932500 0.477243
vt 0.278084 0.717586
vt 0.932500 0.564904
vt 0.932500 0.984399
vt 0.283975 0.804241
vt 0.932500 0.399164
vt 0.283975 0.780900
vt 0.932500 0.422506
vt 0.598753 0.591929
vt 0.885609 0.984333
vt 0.885609 0.413377
vt 0.564449 0.539578
vt 0.885609 0.921745
vt 0.542151 0.558296
vt 0.885609 0.489411
vt 0.523358 0.591929
vt 0.885609 0.527938
vt 0.561540 0.591929
vt 0.885609 0.450589
vt 0.602183 0.482603
vt 0.885609 0.853408
vt 0.521270 0.482603
vt 0.885609 0.733215
vt 0.564449 0.482603
vt 0.885609 0.815673
vt 0.542822 0.517728
vt 0.885609 0.774425
vt 0.520524 0.538981
vt 0.885609 0.627705
vt 0.483312 0.482603
vt 0.885609 0.695257
vt 0.486519 0.591929
vt 0.885609 0.564778
vt 0.331032 0.106377
vt 0.916800 0.625608
vt 0.353106 0.069463
vt 0.916800 0.668618
vt 0.271447 0.069463
vt 0.916800 0.984270
vt 0.916800 0.545086
vt 0.308958 0.069463
vt 0.916800 0.582597
vt 0.314029 0.133000
vt 0.916800 0.907784
vt 0.390393 0.069463
vt 0.916800 0.705905
vt 0.314029 0.178788
vt 0.916800 0.861995
vt 0.347885 0.133000
vt 0.916800 0.782350
vt 0.347885 0.178788
vt 0.916800 0.828139
vt 0.381817 0.391101
vt 0.948208 0.692182
vt 0.318279 0.367610
vt 0.948208 0.605154
vt 0.283975 0.305117
vt 0.948208 0.960984
vt 0.278084 0.368430
vt 0.948208 0.818585
vt 0.278084 0.391101
vt 0.948208 0.795915
vt 0.381817 0.367610
vt 0.948208 0.668691
vt 0.379579 0.303626
vt 0.948208 0.516544
vt 0.379579 0.281775
vt 0.948208 0.494694
vt 0.338713 0.305117
vt 0.948208 0.906246
vt 0.283975 0.281775
vt 0.948208 0.984325
vt 0.948208 0.399090
s 0
usemtl Material
f 36/76/1 105/217/1 106/219/1
f 109/225/1 48/102/1 107/221/1
f 87/178/2 54/113/2 90/185/2
f 63/131/2 48/102/2 89/182/2
f 65/134/3 61/126/3 73/149/3
f 82/168/3 59/122/3 81/166/3
f 117/242/4 61/127/4 115/237/4
f 1/2/4 59/123/4 120/248/4
f 123/254/5 63/131/5 127/262/5
f 59/123/5 1/2/5 130/268/5
f 36/78/6 61/128/6 100/206/6
f 65/134/6 94/193/6 96/197/6
f 33/70/3 53/111/3 47/99/3
f 33/70/3 57/118/3 53/111/3
f 57/118/3 62/129/3 60/124/3
f 57/118/3 64/132/3 62/129/3
f 33/70/3 64/132/3 57/118/3
f 70/143/3 64/132/3 33/70/3
f 70/143/3 68/139/3 64/132/3
f 68/139/3 66/135/3 64/132/3
f 70/143/3 69/141/3 68/139/3
f 67/137/3 66/135/3 68/139/3
s 1
f 33/71/7 77/159/8 80/165/9
f 47/101/10 71/146/11 77/157/8
f 53/112/12 72/148/13 71/146/11
f 57/119/14 73/150/15 72/148/13
f 60/125/16 75/154/17 73/150/15
f 62/130/18 74/152/19 75/154/17
f 64/133/20 81/167/21 74/152/19
f 66/136/22 82/169/23 81/167/21
f 67/138/24 78/161/25 82/169/23
f 68/140/26 79/163/27 78/161/25
f 69/142/28 76/156/29 79/163/27
f 70/144/30 80/165/9 76/156/29
s 0
f 26/55/2 42/89/2 31/65/2
f 26/55/2 45/95/2 42/89/2
f 45/95/2 52/109/2 51/107/2
f 45/95/2 55/114/2 52/109/2
f 26/55/2 55/114/2 45/95/2
f 58/120/2 55/114/2 26/55/2
f 58/120/2 56/116/2 55/114/2
s 1
f 26/56/31 90/186/32 91/188/33
f 31/67/34 87/179/35 90/184/32
f 42/90/36 86/177/37 87/179/35
f 45/96/38 84/173/39 86/177/37
f 51/108/40 83/171/41 84/173/39
f 52/110/42 85/175/43 83/171/41
f 55/115/44 88/181/45 85/175/43
f 56/117/46 89/183/47 88/181/45
f 58/121/48 91/188/33 89/183/47
s 0
f 15/32/6 29/61/6 20/42/6
f 15/32/6 34/72/6 29/61/6
f 15/32/6 50/105/6 34/72/6
f 50/105/6 38/81/6 34/72/6
f 49/103/6 38/81/6 50/105/6
f 49/103/6 41/87/6 38/81/6
f 49/103/6 44/93/6 41/87/6
f 46/97/6 44/93/6 49/103/6
s 1
f 15/33/49 100/207/50 101/209/51
f 20/44/52 97/200/53 100/205/50
f 34/73/54 97/200/53 29/62/55
f 34/73/54 95/196/56 93/192/57
f 38/82/58 92/190/53 95/196/56
f 41/88/59 94/194/60 92/190/53
f 44/94/61 96/198/51 94/194/60
f 46/98/62 99/204/63 96/198/51
f 49/104/64 98/202/65 99/204/63
f 50/106/66 101/209/51 98/202/65
s 0
f 8/17/1 12/25/1 21/45/1
f 8/17/1 21/45/1 23/49/1
f 23/49/1 27/57/1 30/63/1
f 23/49/1 30/63/1 32/68/1
f 8/17/1 23/49/1 32/68/1
f 43/91/1 8/17/1 32/68/1
f 43/91/1 32/68/1 39/83/1
f 39/83/1 32/68/1 35/74/1
f 43/91/1 39/83/1 40/85/1
f 37/79/1 39/83/1 35/74/1
s 1
f 8/18/67 102/211/68 12/26/69
f 12/27/69 106/220/70 21/46/71
f 21/46/71 104/216/72 23/50/73
f 23/50/73 105/218/74 27/58/75
f 27/58/75 113/234/76 30/64/77
f 30/64/77 111/230/78 32/69/79
f 32/69/79 112/232/80 35/75/81
f 35/75/81 108/224/82 37/80/83
f 37/80/83 110/228/84 39/84/85
f 39/84/85 109/226/86 40/86/87
f 40/86/87 107/222/88 43/92/89
f 43/92/89 103/214/90 8/18/67
s 0
f 3/5/4 6/12/4 10/21/4
f 3/5/4 10/21/4 14/30/4
f 14/30/4 17/36/4 22/47/4
f 14/30/4 22/47/4 24/51/4
f 3/5/4 14/30/4 24/51/4
f 28/59/4 3/5/4 24/51/4
f 28/59/4 24/51/4 25/53/4
s 1
f 3/6/91 116/240/92 6/13/93
f 10/22/94 116/241/92 117/243/95
f 10/22/94 114/236/96 14/31/97
f 14/31/97 115/238/98 17/37/99
f 17/37/99 119/247/100 22/48/101
f 22/48/101 121/251/102 24/52/103
f 24/52/103 122/253/104 25/54/52
f 28/60/55 122/253/104 120/249/105
f 28/60/55 118/245/106 3/6/91
s 0
f 2/3/5 4/7/5 5/10/5
f 2/3/5 5/10/5 7/15/5
f 2/3/5 7/15/5 19/40/5
f 19/40/5 7/15/5 9/19/5
f 18/38/5 19/40/5 9/19/5
f 18/38/5 9/19/5 11/23/5
f 18/38/5 11/23/5 13/28/5
f 16/34/5 18/38/5 13/28/5
s 1
f 2/4/107 132/273/108 4/8/46
f 5/11/48 132/274/108 130/269/109
f 7/16/110 130/269/109 129/267/111
f 9/20/112 129/267/111 124/257/113
f 9/20/112 128/265/109 11/24/114
f 13/29/115 128/265/109 123/255/116
f 16/35/117 123/255/116 127/263/118
f 18/39/119 127/263/118 126/261/120
f 18/39/119 131/271/121 19/41/122
f 2/4/107 131/271/121 125/259/118
s 0
f 107/221/1 1/1/1 36/76/1
f 54/113/1 48/102/1 112/231/1
f 112/231/1 111/229/1 113/233/1
f 105/217/1 104/215/1 106/219/1
f 54/113/1 112/231/1 113/233/1
f 54/113/1 113/233/1 105/217/1
f 103/213/1 107/221/1 36/76/1
f 102/210/1 103/213/1 36/76/1
f 36/76/1 54/113/1 105/217/1
f 106/219/1 102/210/1 36/76/1
f 109/225/1 110/227/1 108/223/1
f 108/223/1 112/231/1 48/102/1
f 48/102/1 1/1/1 107/221/1
f 109/225/1 108/223/1 48/102/1
f 87/178/2 86/176/2 84/172/2
f 84/172/2 83/170/2 54/113/2
f 54/113/2 65/134/2 90/185/2
f 87/178/2 84/172/2 54/113/2
f 91/187/2 90/185/2 65/134/2
f 48/102/2 54/113/2 83/170/2
f 83/170/2 85/174/2 88/180/2
f 89/182/2 91/187/2 65/134/2
f 48/102/2 83/170/2 88/180/2
f 89/182/2 65/134/2 63/131/2
f 48/102/2 88/180/2 89/182/2
f 75/153/3 74/151/3 81/166/3
f 81/166/3 63/131/3 65/134/3
f 61/126/3 59/122/3 76/155/3
f 76/155/3 80/164/3 77/158/3
f 71/145/3 72/147/3 73/149/3
f 61/126/3 76/155/3 77/158/3
f 61/126/3 77/158/3 71/145/3
f 75/153/3 81/166/3 65/134/3
f 61/126/3 71/145/3 73/149/3
f 73/149/3 75/153/3 65/134/3
f 82/168/3 78/160/3 79/162/3
f 79/162/3 76/155/3 59/122/3
f 59/122/3 63/131/3 81/166/3
f 82/168/3 79/162/3 59/122/3
f 117/242/4 116/239/4 61/127/4
f 61/127/4 36/77/4 119/246/4
f 115/237/4 114/235/4 117/242/4
f 61/127/4 119/246/4 115/237/4
f 122/252/4 121/250/4 119/246/4
f 119/246/4 36/77/4 1/2/4
f 59/123/4 61/127/4 116/239/4
f 116/239/4 118/244/4 120/248/4
f 122/252/4 119/246/4 1/2/4
f 59/123/4 116/239/4 120/248/4
f 120/248/4 122/252/4 1/2/4
f 123/254/5 48/102/5 63/131/5
f 125/258/5 131/270/5 126/260/5
f 126/260/5 127/262/5 63/131/5
f 1/2/5 48/102/5 123/254/5
f 128/264/5 124/256/5 129/266/5
f 1/2/5 123/254/5 128/264/5
f 126/260/5 63/131/5 59/123/5
f 132/272/5 125/258/5 126/260/5
f 128/264/5 129/266/5 130/268/5
f 132/272/5 126/260/5 59/123/5
f 1/2/5 128/264/5 130/268/5
f 130/268/5 132/272/5 59/123/5
f 93/191/6 95/195/6 92/189/6
f 92/189/6 94/193/6 54/113/6
f 61/128/6 65/134/6 96/197/6
f 99/203/6 98/201/6 101/208/6
f 61/128/6 96/197/6 99/203/6
f 92/189/6 54/113/6 36/78/6
f 97/199/6 93/191/6 92/189/6
f 99/203/6 101/208/6 100/206/6
f 97/199/6 92/189/6 36/78/6
f 61/128/6 99/203/6 100/206/6
f 100/206/6 97/199/6 36/78/6
f 65/134/6 54/113/6 94/193/6
s 1
f 33/71/7 47/100/10 77/159/8
f 47/101/10 53/112/12 71/146/11
f 53/112/12 57/119/14 72/148/13
f 57/119/14 60/125/16 73/150/15
f 60/125/16 62/130/18 75/154/17
f 62/130/18 64/133/20 74/152/19
f 64/133/20 66/136/22 81/167/21
f 66/136/22 67/138/24 82/169/23
f 67/138/24 68/140/26 78/161/25
f 68/140/26 69/142/28 79/163/27
f 69/142/28 70/144/30 76/156/29
f 70/144/30 33/71/7 80/165/9
f 26/56/31 31/66/34 90/186/32
f 31/67/34 42/90/36 87/179/35
f 42/90/36 45/96/38 86/177/37
f 45/96/38 51/108/40 84/173/39
f 51/108/40 52/110/42 83/171/41
f 52/110/42 55/115/44 85/175/43
f 55/115/44 56/117/46 88/181/45
f 56/117/46 58/121/48 89/183/47
f 58/121/48 26/56/31 91/188/33
f 15/33/49 20/43/52 100/207/50
f 20/44/52 29/62/55 97/200/53
f 34/73/54 93/192/57 97/200/53
f 34/73/54 38/82/58 95/196/56
f 38/82/58 41/88/59 92/190/53
f 41/88/59 44/94/61 94/194/60
f 44/94/61 46/98/62 96/198/51
f 46/98/62 49/104/64 99/204/63
f 49/104/64 50/106/66 98/202/65
f 50/106/66 15/33/49 101/209/51
f 8/18/67 103/214/90 102/211/68
f 12/27/69 102/212/68 106/220/70
f 21/46/71 106/220/70 104/216/72
f 23/50/73 104/216/72 105/218/74
f 27/58/75 105/218/74 113/234/76
f 30/64/77 113/234/76 111/230/78
f 32/69/79 111/230/78 112/232/80
f 35/75/81 112/232/80 108/224/82
f 37/80/83 108/224/82 110/228/84
f 39/84/85 110/228/84 109/226/86
f 40/86/87 109/226/86 107/222/88
f 43/92/89 107/222/88 103/214/90
f 3/6/91 118/245/106 116/240/92
f 10/22/94 6/14/93 116/241/92
f 10/22/94 117/243/95 114/236/96
f 14/31/97 114/236/96 115/238/98
f 17/37/99 115/238/98 119/247/100
f 22/48/101 119/247/100 121/251/102
f 24/52/103 121/251/102 122/253/104
f 28/60/55 25/54/52 122/253/104
f 28/60/55 120/249/105 118/245/106
f 2/4/107 125/259/118 132/273/108
f 5/11/48 4/9/46 132/274/108
f 7/16/110 5/11/48 130/269/109
f 9/20/112 7/16/110 129/267/111
f 9/20/112 124/257/113 128/265/109
f 13/29/115 11/24/114 128/265/109
f 16/35/117 13/29/115 123/255/116
f 18/39/119 16/35/117 127/263/118
f 18/39/119 126/261/120 131/271/121
f 2/4/107 19/41/122 131/271/121
