# Blender 3.5.1
# www.blender.org
o Sphere
v 0.353553 0.866025 -0.353553
v 0.612372 0.500000 -0.612372
v 0.707107 0.000000 -0.707107
v 0.612372 -0.500000 -0.612372
v 0.353553 -0.866025 -0.353553
v 0.500000 0.866025 0.000000
v 0.866025 0.500000 0.000000
v 1.000000 0.000000 0.000000
v 0.866025 -0.500000 0.000000
v 0.500000 -0.866025 0.000000
v 0.353553 0.866025 0.353553
v 0.612372 0.500000 0.612372
v 0.707107 0.000000 0.707107
v 0.612372 -0.500000 0.612372
v 0.353553 -0.866025 0.353553
v 0.000000 0.866025 0.500000
v 0.000000 0.500000 0.866025
v 0.000000 0.000000 1.000000
v 0.000000 -0.500000 0.866025
v 0.000000 -0.866025 0.500000
v 0.000000 1.000000 0.000000
v -0.353553 0.866025 0.353553
v -0.612372 0.500000 0.612372
v -0.707107 0.000000 0.707107
v -0.612372 -0.500000 0.612372
v -0.353553 -0.866025 0.353553
v 0.000000 -1.000000 0.000000
v -0.500000 0.866025 0.000000
v -0.866025 0.500000 0.000000
v -1.000000 0.000000 0.000000
v -0.866025 -0.500000 0.000000
v -0.500000 -0.866025 0.000000
v -0.353553 0.866025 -0.353553
v -0.612372 0.500000 -0.612372
v -0.707107 0.000000 -0.707107
v -0.612372 -0.500000 -0.612372
v -0.353553 -0.866025 -0.353553
v 0.000000 0.866025 -0.500000
v 0.000000 0.500000 -0.866025
v 0.000000 0.000000 -1.000000
v 0.000000 -0.500000 -0.866025
v 0.000000 -0.866025 -0.500000
vn -0.0000 -1.0000 -0.0000
vn -0.0000 -0.8383 -0.5452
vn 0.3855 -0.8383 -0.3855
vn -0.0000 -0.0000 -1.0000
vn 0.6225 -0.4744 -0.6225
vn -0.0000 -0.4744 -0.8803
vn -0.0000 0.8383 -0.5452
vn 0.6225 0.4744 -0.6225
vn -0.0000 0.4744 -0.8803
vn 0.7071 -0.0000 -0.7071
vn -0.0000 1.0000 -0.0000
vn 0.3855 0.8383 -0.3855
vn 0.8803 0.4744 -0.0000
vn 0.5452 -0.8383 -0.0000
vn 1.0000 -0.0000 -0.0000
vn 0.5452 0.8383 -0.0000
vn 0.8803 -0.4744 -0.0000
vn 0.3855 -0.8383 0.3855
vn 0.6225 0.4744 0.6225
vn 0.7071 -0.0000 0.7071
vn 0.3855 0.8383 0.3855
vn 0.6225 -0.4744 0.6225
vn -0.0000 -0.8383 0.5452
vn -0.0000 -0.0000 1.0000
vn -0.0000 0.8383 0.5452
vn -0.0000 -0.4744 0.8803
vn -0.0000 0.4744 0.8803
vn -0.3855 -0.8383 0.3855
vn -0.7071 -0.0000 0.7071
vn -0.3855 0.8383 0.3855
vn -0.6225 -0.4744 0.6225
vn -0.6225 0.4744 0.6225
vn -0.5452 -0.8383 -0.0000
vn -1.0000 -0.0000 -0.0000
vn -0.5452 0.8383 -0.0000
vn -0.8803 -0.4744 -0.0000
vn -0.8803 0.4744 -0.0000
vn -0.7071 -0.0000 -0.7071
vn -0.3855 0.8383 -0.3855
vn -0.3855 -0.8383 -0.3855
vn -0.6225 -0.4744 -0.6225
vn -0.6225 0.4744 -0.6225
vt 0.625000 0.833333
vt 0.625000 0.666667
vt 0.625000 0.500000
vt 0.625000 0.333333
vt 0.625000 0.166667
vt 0.500000 0.833333
vt 0.500000 0.666667
vt 0.500000 0.500000
vt 0.500000 0.333333
vt 0.500000 0.166667
vt 0.375000 0.833333
vt 0.375000 0.666667
vt 0.375000 0.500000
vt 0.375000 0.333333
vt 0.375000 0.166667
vt 0.250000 0.833333
vt 0.250000 0.666667
vt 0.250000 0.500000
vt 0.250000 0.333333
vt 0.250000 0.166667
vt 0.687500 1.000000
vt 0.562500 1.000000
vt 0.437500 1.000000
vt 0.312500 1.000000
vt 0.187500 1.000000
vt 0.062500 1.000000
vt 0.937500 1.000000
vt 0.812500 1.000000
vt 0.125000 0.833333
vt 0.125000 0.666667
vt 0.125000 0.500000
vt 0.125000 0.333333
vt 0.125000 0.166667
vt 0.687500 0.000000
vt 0.562500 0.000000
vt 0.437500 0.000000
vt 0.312500 0.000000
vt 0.187500 0.000000
vt 0.062500 0.000000
vt 0.937500 0.000000
vt 0.812500 0.000000
vt 0.000000 0.833333
vt 1.000000 0.833333
vt 0.000000 0.666667
vt 1.000000 0.666667
vt 0.000000 0.500000
vt 1.000000 0.500000
vt 0.000000 0.333333
vt 1.000000 0.333333
vt 1.000000 0.166667
vt 0.000000 0.166667
vt 0.875000 0.833333
vt 0.875000 0.666667
vt 0.875000 0.500000
vt 0.875000 0.333333
vt 0.875000 0.166667
vt 0.750000 0.833333
vt 0.750000 0.666667
vt 0.750000 0.500000
vt 0.750000 0.333333
vt 0.750000 0.166667
s 1
f 27/34/1 42/61/2 5/5/3
f 40/59/4 4/4/5 41/60/6
f 38/57/7 2/2/8 39/58/9
f 41/60/6 5/5/3 42/61/2
f 39/58/9 3/3/10 40/59/4
f 38/57/7 21/21/11 1/1/12
f 1/1/12 7/7/13 2/2/8
f 4/4/5 10/10/14 5/5/3
f 2/2/8 8/8/15 3/3/10
f 1/1/12 21/22/11 6/6/16
f 27/35/1 5/5/3 10/10/14
f 3/3/10 9/9/17 4/4/5
f 9/9/17 15/15/18 10/10/14
f 8/8/15 12/12/19 13/13/20
f 6/6/16 21/23/11 11/11/21
f 27/36/1 10/10/14 15/15/18
f 9/9/17 13/13/20 14/14/22
f 6/6/16 12/12/19 7/7/13
f 14/14/22 20/20/23 15/15/18
f 12/12/19 18/18/24 13/13/20
f 11/11/21 21/24/11 16/16/25
f 27/37/1 15/15/18 20/20/23
f 13/13/20 19/19/26 14/14/22
f 11/11/21 17/17/27 12/12/19
f 19/19/26 26/33/28 20/20/23
f 17/17/27 24/31/29 18/18/24
f 16/16/25 21/25/11 22/29/30
f 27/38/1 20/20/23 26/33/28
f 18/18/24 25/32/31 19/19/26
f 16/16/25 23/30/32 17/17/27
f 25/32/31 32/51/33 26/33/28
f 23/30/32 30/46/34 24/31/29
f 22/29/30 21/26/11 28/42/35
f 27/39/1 26/33/28 32/51/33
f 24/31/29 31/48/36 25/32/31
f 22/29/30 29/44/37 23/30/32
f 29/45/37 35/54/38 30/47/34
f 28/43/35 21/27/11 33/52/39
f 27/40/1 32/50/33 37/56/40
f 30/47/34 36/55/41 31/49/36
f 28/43/35 34/53/42 29/45/37
f 31/49/36 37/56/40 32/50/33
f 33/52/39 21/28/11 38/57/7
f 27/41/1 37/56/40 42/61/2
f 35/54/38 41/60/6 36/55/41
f 33/52/39 39/58/9 34/53/42
f 36/55/41 42/61/2 37/56/40
f 34/53/42 40/59/4 35/54/38
f 40/59/4 3/3/10 4/4/5
f 38/57/7 1/1/12 2/2/8
f 41/60/6 4/4/5 5/5/3
f 39/58/9 2/2/8 3/3/10
f 1/1/12 6/6/16 7/7/13
f 4/4/5 9/9/17 10/10/14
f 2/2/8 7/7/13 8/8/15
f 3/3/10 8/8/15 9/9/17
f 9/9/17 14/14/22 15/15/18
f 8/8/15 7/7/13 12/12/19
f 9/9/17 8/8/15 13/13/20
f 6/6/16 11/11/21 12/12/19
f 14/14/22 19/19/26 20/20/23
f 12/12/19 17/17/27 18/18/24
f 13/13/20 18/18/24 19/19/26
f 11/11/21 16/16/25 17/17/27
f 19/19/26 25/32/31 26/33/28
f 17/17/27 23/30/32 24/31/29
f 18/18/24 24/31/29 25/32/31
f 16/16/25 22/29/30 23/30/32
f 25/32/31 31/48/36 32/51/33
f 23/30/32 29/44/37 30/46/34
f 24/31/29 30/46/34 31/48/36
f 22/29/30 28/42/35 29/44/37
f 29/45/37 34/53/42 35/54/38
f 30/47/34 35/54/38 36/55/41
f 28/43/35 33/52/39 34/53/42
f 31/49/36 36/55/41 37/56/40
f 35/54/38 40/59/4 41/60/6
f 33/52/39 38/57/7 39/58/9
f 36/55/41 41/60/6 42/61/2
f 34/53/42 39/58/9 40/59/4
